<svg width="16px" height="16px" viewBox="0 0 16 16" xmlns="http://www.w3.org/2000/svg" xmlns:xlink="http://www.w3.org/1999/xlink"><g id="UI-Kit" stroke="none" stroke-width="1" fill="none" fill-rule="evenodd"><g id="04.Icons" transform="translate(-836.000000, -736.000000)" fill-rule="nonzero"><g id="Icons/16px/Sports/Futbol-Colorfull" transform="translate(836.000000, 736.000000)"><path d="M7.990625,15.9812187 C6.7419375,15.9812187 5.55925,15.6933125 4.50540625,15.1804062 C4.0476875,14.957625 4.24728125,14.059375 3.8433125,13.7568437 C3.47896875,13.4839687 2.50559375,13.8137812 2.193,13.4840312 C0.8344375,12.0510312 0,10.1164375 0,7.990625 C0,7.62428125 0.02478125,7.26359375 0.07275,6.9101875 C0.13234375,6.4713125 1.611875,6.043625 1.7399375,5.63021875 C1.88634375,5.15765625 0.6913125,4.70371875 0.9186875,4.2729375 C2.03,2.1675 4.05421875,0.615375 6.4609375,0.14690625 C6.9561875,0.0505 7.467625,1.07371875 7.990625,1.07371875 C8.49628125,1.07371875 8.99109375,0.0471875 9.4709375,0.1374375 C11.8457812,0.58409375 13.8533125,2.084875 14.9871875,4.1335 C15.2176563,4.54990625 14.8183125,5.5826875 14.9723438,6.040125 C15.130625,6.5101875 15.8400313,6.4059375 15.9084688,6.9101875 C15.9564375,7.26359375 15.9812188,7.62425 15.9812188,7.99059375 C15.9812188,10.1164062 15.1467813,12.051 13.78825,13.4840312 C13.4871875,13.801625 12.6148438,13.549 12.2656562,13.8139375 C11.8502813,14.1290937 11.9488125,14.9501875 11.4758125,15.180375 C10.422,15.6933437 9.2393125,15.9812187 7.990625,15.9812187 Z" id="Path" fill="#00607F"></path><path d="M15.9084687,6.91021875 C15.84,6.40596875 15.130625,6.51021875 14.9723125,6.04015625 C14.8182812,5.58271875 15.217625,4.54996875 14.9871562,4.13353125 C13.8533125,2.08490625 11.8457812,0.58409375 9.4709375,0.1374375 C8.99171875,0.0473125 8.49753125,1.071 7.9925625,1.07359375 L7.9925625,15.9811875 C9.24053125,15.980875 10.4225625,15.6930625 11.4758437,15.1804062 C11.9488125,14.9501875 11.8503125,14.129125 12.2656875,13.8139687 C12.6148437,13.5490312 13.4872187,13.801625 13.7882812,13.4840625 C15.1468125,12.0510312 15.98125,10.1164375 15.98125,7.990625 C15.98125,7.62428125 15.9564375,7.263625 15.9084687,6.91021875 L15.9084687,6.91021875 Z" id="Path" fill="#002C3C"></path><path d="M6.4754375,4.89440625 L9.22459375,4.89621885 C9.36565625,4.8963125 9.49925,4.832875 9.58834375,4.7235 L10.8837188,3.13309375 C11.0076563,2.9809375 11.0236875,2.7676875 10.9239063,2.59871875 L9.4708125,0.138 C8.99096875,0.04775 8.4963125,1.42108547e-14 7.990625,1.42108547e-14 C7.4849375,1.42108547e-14 6.99028125,0.04775 6.51040625,0.13803125 L5.0611875,2.5921875 C4.97165625,2.74378125 4.974625,2.93275 5.068875,3.08146875 L6.0798125,4.67659375 C6.16571875,4.812125 6.31496875,4.89428125 6.4754375,4.89440625 Z" id="Path" fill="#FFF4F4"></path><path d="M10.2734687,5.706125 L11.1108125,8.289 C11.1576875,8.433625 11.2718437,8.54653125 11.4169687,8.591875 L13.4835937,9.237375 C13.6600625,9.2925 13.8524062,9.23875 13.97475,9.10015625 L15.9079062,6.91025 C15.7728125,5.91528125 15.4540312,4.97803125 14.9867187,4.13371875 L12.1300937,3.497125 C11.9569062,3.45853125 11.77675,3.52103125 11.6646875,3.658625 L10.3559062,5.2655 C10.2554375,5.38890625 10.2244062,5.5548125 10.2734687,5.706125 L10.2734687,5.706125 Z" id="Path" fill="#F6EFEA"></path><path d="M10.7088437,9.55053125 L8.5154375,11.1419375 C8.38234375,11.2385 8.30959375,11.3977187 8.3236875,11.5615312 L8.50096875,13.6223125 C8.51575,13.7939687 8.62346875,13.9436875 8.7815625,14.0122187 L11.4757187,15.1801562 C12.3462812,14.7564375 13.128875,14.17925 13.7880937,13.483875 L13.5067187,10.5276875 C13.4888437,10.3397812 13.36,10.1809375 13.1798437,10.1246562 L11.123875,9.48246875 C10.9825312,9.438375 10.8286562,9.46359375 10.7088437,9.55053125 L10.7088437,9.55053125 Z" id="Path" fill="#F6EFEA"></path><path d="M4.5045625,8.3176875 L5.3774375,5.63715625 C5.4206875,5.5043125 5.4024375,5.35909375 5.32765625,5.24109375 L4.3695,3.72925 C4.2609375,3.55796875 4.0545625,3.47590625 3.8580625,3.525875 L0.91921875,4.2731875 C0.4929375,5.0808125 0.201,5.96971875 0.0733125,6.91025 L2.0225625,9.11834375 C2.1514375,9.26434375 2.3571875,9.3154375 2.53940625,9.24671875 L4.22428125,8.61115625 C4.35740625,8.5609375 4.46053125,8.45296875 4.5045625,8.3176875 Z" id="Path" fill="#FFF4F4"></path><path d="M7.189625,11.2011563 L4.94421875,9.56753125 C4.8165625,9.47465625 4.65071875,9.45228125 4.503,9.508 L2.77315625,10.1605313 C2.60575,10.2236875 2.48890625,10.3765938 2.47196875,10.5546875 L2.19315625,13.483875 C2.852375,14.17925 3.63496875,14.7564375 4.50553125,15.1801562 L7.26990625,13.98175 C7.45478125,13.9015937 7.56775,13.71225 7.5505,13.5115 L7.380875,11.54 C7.36921875,11.4046875 7.29946875,11.2810625 7.189625,11.2011563 L7.189625,11.2011563 Z" id="Path" fill="#FFF4F4"></path><path d="M10.9239063,2.5986875 L9.4708125,0.138 C8.9915625,0.047875 8.49753125,0.000125 7.99253125,0 L7.99253125,4.895375 L9.22459375,4.8961876 C9.36565625,4.89628125 9.49925,4.83284375 9.58834375,4.72346875 L10.8837187,3.1330625 C11.0076563,2.98090625 11.0236875,2.76765625 10.9239062,2.5986875 L10.9239063,2.5986875 Z" id="Path" fill="#F6EFEA"></path></g></g></g></svg>