<svg width="21px" height="20px" viewBox="0 0 21 20" xmlns="http://www.w3.org/2000/svg" xmlns:xlink="http://www.w3.org/1999/xlink" class="FavoriteButtonPassiveIcon-sc-1414fzl-4 bXgtHw"><g id="UI-Kit" stroke="none" stroke-width="1" fill="#d9d9d9" fill-rule="evenodd"><g id="04.Icons" transform="translate(-1185.000000, -267.000000)" fill="#d9d9d9" fill-rule="nonzero"><g id="Icons/20px/AddFav-Default" transform="translate(1185.000000, 267.000000)"><path d="M5.36971716,19.8559023 L10.5,17.1723073 L15.6302828,19.8559023 C16.5409438,20.3324713 17.6282017,19.5668634 17.4515664,18.5394916 L16.470259,12.8559114 L20.6192344,8.83248347 C21.3650281,8.10982894 20.9528789,6.84812083 19.9244611,6.69969131 L14.1897159,5.86766967 L11.6265486,0.695791747 C11.167289,-0.226065796 9.83662085,-0.237776889 9.37345142,0.695791747 L6.81028411,5.86766967 L1.0755389,6.69969131 C0.0471210648,6.84812083 -0.36502805,8.10982894 0.380765586,8.83248347 L4.52974101,12.8559114 L3.54843359,18.5394916 C3.37179826,19.5668634 4.45905621,20.3363623 5.36971716,19.8559023 Z M15.3790528,17.6059229 L10.5,15.0551554 L5.62094719,17.6059229 L6.55123429,12.1996706 L2.60243024,8.3715547 L8.05849948,7.58248645 L10.5,2.66062318 L12.9415005,7.58248645 L18.3975698,8.3715547 L14.4487657,12.1996706 L15.3790528,17.6059229 Z" id="\uF005"></path></g></g></g></svg>