<svg xmlns="http://www.w3.org/2000/svg" width="20" height="18" viewBox="0 0 20 18"><g><g><path fill="rgb(153, 153, 153)" d="M20 3.996c0 .564-.437 1.04-.957 1.075-.37 3.032-1.344 8.532-2.267 11.14-2.2.9-4.282 1.376-6.784 1.376-2.486 0-4.568-.494-6.768-1.375-.923-2.609-1.897-8.109-2.267-11.14C.42 5.035 0 4.56 0 3.995c0-.6.453-1.075 1.024-1.075s1.025.476 1.025 1.075c0 .44-.235.81-.605.987.99 1.675 1.998 3.332 3.04 4.619.84 1.022 1.612.828 2.233-.124C7.96 7.628 8.883 5.3 9.605 3.097c-.537-.159-.923-.687-.923-1.304C8.682 1.035 9.27.4 9.992.4c.738 0 1.326.635 1.326 1.393 0 .599-.403 1.128-.923 1.304.705 2.203 1.612 4.53 2.854 6.381.638.934 1.41 1.146 2.25.124 1.042-1.287 2.05-2.944 3.04-4.619a1.1 1.1 0 0 1-.604-.987c0-.6.453-1.075 1.024-1.075.57 0 1.024.476 1.041 1.075zm-3.95 4.02c-.304.422-.608.845-.928 1.233-.556.688-.944.635-1.416-.088-.236-.353-.473-.705-.675-1.093.455-.74.826-1.516 1.164-2.256A.874.874 0 0 1 13.689 5c0-.494.388-.882.843-.882.472 0 .86.388.86.882 0 .352-.22.67-.506.81.32.741.708 1.499 1.163 2.204zm-9.069.06c-.219.37-.438.74-.674 1.091-.472.704-.877.757-1.417.088-.303-.404-.623-.809-.91-1.231.438-.739.81-1.495 1.147-2.216a.872.872 0 0 1-.506-.81c0-.492.37-.879.843-.879.472 0 .86.387.86.88 0 .352-.22.668-.506.809.337.756.725 1.512 1.163 2.269z"></path></g></g></svg>