<svg width="43px" height="11px" viewBox="0 0 43 11" xmlns="http://www.w3.org/2000/svg" xmlns:xlink="http://www.w3.org/1999/xlink"><g id="UI-Kit" stroke="none" stroke-width="1" fill="none" fill-rule="evenodd"><g id="02.Buttons" transform="translate(-168.000000, -1422.000000)" fill="#FFFFFF" fill-rule="nonzero"><g id="Buttons/Text/Canl\u0131-Default" transform="translate(168.000000, 1422.000000)"><path d="M4.29296875,10.2060547 C6.79492188,10.2060547 8.72265625,8.70898438 9.10546875,6.47363281 L6.66503906,6.47363281 C6.33691406,7.49902344 5.49609375,8.13476562 4.45019531,8.13476562 C3.28808594,8.13476562 2.57714844,7.28027344 2.57714844,5.88574219 C2.57714844,3.65039062 3.72558594,2.05078125 5.359375,2.05078125 C6.36425781,2.05078125 7.13671875,2.74121094 7.1640625,3.70507812 C7.17089844,3.87597656 7.17089844,3.91699219 7.1640625,3.95800781 L9.60449219,3.95800781 C9.61816406,3.86230469 9.63183594,3.73242188 9.63183594,3.57519531 C9.59765625,1.4765625 7.92285156,0 5.59863281,0 C2.21484375,0 0,2.41308594 0,6.02929688 C0,8.56542969 1.68847656,10.2060547 4.29296875,10.2060547 Z M11.5390625,10.0351562 L12.6533203,7.86816406 L15.8730469,7.86816406 L16.0371094,10.0351562 L18.5869141,10.0351562 L17.4521484,0.170898438 L14.3828125,0.170898438 L8.88671875,10.0351562 L11.5390625,10.0351562 Z M15.7705078,6.06347656 L13.5625,6.06347656 L15.4423828,2.37207031 L15.4970703,2.37207031 L15.7705078,6.06347656 Z M21.8818359,10.0351562 L23.1533203,4.00585938 L23.2011719,4.00585938 L26.1132812,10.0351562 L28.0820312,10.0351562 L30.1806641,0.170898438 L27.7675781,0.170898438 L26.4960938,6.20019531 L26.4482422,6.20019531 L23.5361328,0.170898438 L21.5673828,0.170898438 L19.46875,10.0351562 L21.8818359,10.0351562 Z M36.3603516,10.0351562 L36.7978516,7.96386719 L32.6142578,7.96386719 L34.2685547,0.170898438 L31.7597656,0.170898438 L29.6611328,10.0351562 L36.3603516,10.0351562 Z M39.9355469,10.0351562 L42.0341797,0.170898438 L39.5253906,0.170898438 L37.4267578,10.0351562 L39.9355469,10.0351562 Z" id="CANLI"></path></g></g></g></svg>