<svg width="16px" height="16px" viewBox="0 0 16 16" xmlns="http://www.w3.org/2000/svg" xmlns:xlink="http://www.w3.org/1999/xlink" class="SearchBoxIcon-sc-gi824f-11 dTuSnK"><g id="UI-Kit" stroke="none" stroke-width="1" fill="rgb(153, 153, 153)" fill-rule="evenodd"><g id="04.Icons" transform="translate(-583.000000, -699.000000)" fill="#999999" fill-rule="nonzero"><g id="Icons/16px/Search-Passive" transform="translate(583.000000, 699.000000)"><path d="M15.184351,15.8905871 L15.8905871,15.184351 C16.0374679,15.0374703 16.0374679,14.7999525 15.8905871,14.6531023 L12.096834,10.8593491 C12.0249652,10.7874804 11.9312155,10.7499744 11.8312096,10.7499744 L11.418735,10.7499744 C12.4031076,9.60935209 12.999969,8.12498063 12.999969,6.4999845 C12.999969,2.90935586 10.0906131,0 6.4999845,0 C2.90935586,0 0,2.90935586 0,6.4999845 C0,10.0906131 2.90935586,12.999969 6.4999845,12.999969 C8.12498063,12.999969 9.60935209,12.4031076 10.7499744,11.418735 L10.7499744,11.8312096 C10.7499744,11.9312155 10.7905932,12.0249652 10.8593491,12.096834 L14.6531023,15.8905871 C14.7999525,16.0374679 15.0374703,16.0374679 15.184351,15.8905871 Z M6.4999845,11.4999726 C3.73747888,11.4999726 1.49999642,9.26249012 1.49999642,6.4999845 C1.49999642,3.73747888 3.73747888,1.49999642 6.4999845,1.49999642 C9.26249012,1.49999642 11.4999726,3.73747888 11.4999726,6.4999845 C11.4999726,9.26249012 9.26249012,11.4999726 6.4999845,11.4999726 Z" id="\uF002"></path></g></g></g></svg>