<svg xmlns="http://www.w3.org/2000/svg" width="16" height="16" viewBox="0 0 16 16" data-comp-name="slip-settings-icon"><g><g><g><g><path fill="#fff" d="M7.657 10.577a2.584 2.584 0 0 1-2.581-2.58 2.584 2.584 0 0 1 2.58-2.58 2.584 2.584 0 0 1 2.581 2.58 2.584 2.584 0 0 1-2.58 2.58zm1.764 5.23a.386.386 0 0 0 .303-.378v-1.587a6.28 6.28 0 0 0 1.962-1.132l1.374.793c.158.09.355.061.477-.074a7.986 7.986 0 0 0 1.765-3.052.398.398 0 0 0-.18-.454l-1.375-.794a6.214 6.214 0 0 0 0-2.264l1.374-.794a.39.39 0 0 0 .178-.452 8.034 8.034 0 0 0-1.765-3.051.388.388 0 0 0-.477-.074l-1.375.793a6.087 6.087 0 0 0-1.96-1.132V.57a.386.386 0 0 0-.304-.377 8.11 8.11 0 0 0-3.523 0 .386.386 0 0 0-.303.377v1.587A6.28 6.28 0 0 0 3.631 3.29L2.26 2.497a.383.383 0 0 0-.478.074A7.986 7.986 0 0 0 .018 5.623a.386.386 0 0 0 .177.451l1.375.794a6.214 6.214 0 0 0 0 2.264l-1.375.794a.39.39 0 0 0-.177.451 8.034 8.034 0 0 0 1.764 3.052.388.388 0 0 0 .478.074l1.374-.793c.577.496 1.242.88 1.961 1.132v1.587c0 .18.126.339.304.377a8.109 8.109 0 0 0 3.522 0z"></path></g></g></g></g></svg>