<svg width="27px" height="23px" viewBox="0 0 27 23" xmlns="http://www.w3.org/2000/svg" xmlns:xlink="http://www.w3.org/1999/xlink"><g id="UI-Kit" stroke="none" stroke-width="1" fill="none" fill-rule="evenodd"><g id="02.Buttons" transform="translate(-53.000000, -1418.000000)" fill="rgb(153, 153, 153)" fill-rule="nonzero"><g id="Buttons/Text/Tek-Ma\xE7-Default" transform="translate(53.000000, 1418.000000)"><path d="M5.87451172,10 L5.87451172,2.15917969 L8.59521484,2.15917969 L8.59521484,0.135742188 L0.651855469,0.135742188 L0.651855469,2.15917969 L3.37255859,2.15917969 L3.37255859,10 L5.87451172,10 Z M16.4155273,10 L16.4155273,7.9765625 L12.1635742,7.9765625 L12.1635742,5.96679688 L16.1625977,5.96679688 L16.1625977,4.12109375 L12.1635742,4.12109375 L12.1635742,2.15917969 L16.4155273,2.15917969 L16.4155273,0.135742188 L9.65478516,0.135742188 L9.65478516,10 L16.4155273,10 Z M20.3393555,10 L20.3393555,7.2109375 L21.1801758,6.14453125 L23.6958008,10 L26.6420898,10 L23.0053711,4.51757812 L26.4438477,0.135742188 L23.7504883,0.135742188 L20.394043,4.46972656 L20.3393555,4.46972656 L20.3393555,0.135742188 L17.8305664,0.135742188 L17.8305664,10 L20.3393555,10 Z" id="TEK"></path><path d="M3.41894531,20 L3.41894531,15.5097656 L3.46191406,15.5097656 L5.20751953,20 L6.42675781,20 L8.17236328,15.5097656 L8.21533203,15.5097656 L8.21533203,20 L10.2026367,20 L10.2026367,12.2495117 L7.57080078,12.2495117 L5.84130859,16.8632812 L5.79833984,16.8632812 L4.06347656,12.2495117 L1.43164062,12.2495117 L1.43164062,20 L3.41894531,20 Z M13.2211914,20 L13.6240234,18.4584961 L15.9873047,18.4584961 L16.3901367,20 L18.8178711,20 L16.2880859,12.2495117 L13.4306641,12.2495117 L10.9008789,20 L13.2211914,20 Z M15.5737305,16.8525391 L14.0375977,16.8525391 L14.7841797,14.0380859 L14.8271484,14.0380859 L15.5737305,16.8525391 Z M22.8891602,22.4277344 C23.8291016,22.4277344 24.3017578,22.0732422 24.3017578,21.3803711 C24.3017578,20.8325195 23.9472656,20.4780273 23.4316406,20.4780273 L23.6196289,20.112793 C25.4726562,19.9355469 26.7724609,18.6679688 26.7832031,16.8740234 L24.6025391,16.8740234 C24.5327148,17.7709961 23.9633789,18.3457031 23.1791992,18.3457031 C22.2338867,18.3457031 21.6484375,17.5185547 21.6484375,16.1166992 C21.6484375,14.730957 22.2392578,13.9038086 23.1738281,13.9038086 C23.9633789,13.9038086 24.5380859,14.4892578 24.5917969,15.3701172 L26.7724609,15.3701172 C26.7670898,13.4472656 25.2202148,12.1152344 23.1738281,12.1152344 C20.8051758,12.1152344 19.328125,13.5654297 19.328125,16.1220703 C19.328125,18.4692383 20.5688477,19.887207 22.6044922,20.1074219 L22.3735352,20.5263672 L22.3735352,21.2084961 L22.6743164,21.2084961 C23.0771484,21.2084961 23.2114258,21.2675781 23.2114258,21.4555664 C23.2114258,21.5952148 23.0610352,21.6542969 22.706543,21.6542969 C22.5131836,21.6542969 22.309082,21.6328125 22.1748047,21.5898438 L22.1748047,22.347168 C22.3144531,22.4008789 22.59375,22.4277344 22.8891602,22.4277344 Z" id="MA\xC7"></path></g></g></g></svg>