<svg xmlns="http://www.w3.org/2000/svg" width="16" height="16" viewBox="0 0 16 16" data-comp-name="slip-delete-icon" class="DeleteButton-sc-1iqw1c5-16 iGRVgG"><defs><clipPath id="4dpua"><path d="M0 0h16v16H0z"></path></clipPath></defs><g><g><g clip-path="url(#4dpua)"><path fill="#34373b" d="M5.5 13.5v-7a.5.5 0 0 0-1 0v7a.5.5 0 0 0 1 0zm3 0v-7a.5.5 0 0 0-1 0v7a.5.5 0 0 0 1 0zm3 0v-7a.5.5 0 0 0-1 0v7a.5.5 0 0 0 1 0zm-8 2.5A1.5 1.5 0 0 1 2 14.5V4h12v10.5a1.5 1.5 0 0 1-1.5 1.5zm-2-13a.5.5 0 0 1-.5-.5v-1a.5.5 0 0 1 .5-.5h3.75l.294-.584A.81.81 0 0 1 6.21 0h3.575a.82.82 0 0 1 .671.416L10.75 1h3.75a.5.5 0 0 1 .5.5v1a.5.5 0 0 1-.5.5z"></path></g></g></g></svg>