<svg xmlns="http://www.w3.org/2000/svg" width="16" height="16" viewBox="0 0 11 12" class="DeleteIcon-sc-gi824f-5 lflilJ"><defs><clipPath id="1qefa"><path d="M0 0h10.5v12H0z"></path></clipPath></defs><g><g><g><g clip-path="url(#1qefa)"><path fill="#fff" d="M3.61 10.125v-5.25c0-.207-.148-.375-.329-.375-.18 0-.328.168-.328.375v5.25c0 .207.147.375.328.375.181 0 .328-.168.328-.375zm1.968 0v-5.25c0-.207-.147-.375-.328-.375-.181 0-.328.168-.328.375v5.25c0 .207.147.375.328.375.181 0 .328-.168.328-.375zm1.969 0v-5.25c0-.207-.147-.375-.328-.375-.181 0-.328.168-.328.375v5.25c0 .207.147.375.328.375.18 0 .328-.168.328-.375zM2.297 12c-.543 0-.984-.504-.984-1.125V3h7.875v7.875c0 .621-.441 1.125-.985 1.125zM.984 2.25c-.18 0-.328-.168-.328-.375v-.75C.656.918.803.75.984.75h2.461l.193-.438C3.712.14 3.908 0 4.075 0h2.346c.169 0 .366.14.44.312l.194.438h2.46c.182 0 .329.168.329.375v.75c0 .207-.147.375-.328.375z"></path></g></g></g></g></svg>